# xmcd
#
# Track frame offsets:
#	150
#	16507
#	28995
#	44953
#	58599
#	69819
#	78896
#	93902
#	117262
#	130441
#	147558
#	168639
#	186008
#	204233
#	222439
#	242720
#	259232
#	271740
#	284321
#	300089
#
# Disc length: 4319 seconds
#
# Revision: 1
# Processed by: cddbd v1.5.2PL0 Copyright (c) Steve Scherf et al.
# Submitted via: EZCDAudioConverter 2.1.5.1
#
DISCID=1e10dd14
DTITLE=Various Artist - LONG LIVE BLUEGRASS ! CMH 30TH ANNIVERSARY SPECIAL
DYEAR=2005
DGENRE=Bluegrass
TTITLE0=RAUL MALO, PAT FLYNN, ROB IKES, DAVE POMEROY - EARLY MORNING RAIN
TTITLE1=CAROLINA ROAD - LONG ROAD THROUGH CAROLINA
TTITLE2=DAVID WEST FROM PICKIN' ON BRUCE SPRINGSTEEN - I'M ON FIRE
TTITLE3=PINE MOUNTAIN RAILROAD - YOU DON'T LOVE ME ANYMORE
TTITLE4=JIMMY MARTIN and RICKY SKAGGS  - DARLIN' CORY 
TTITLE5=KENNY BLACKWELL FROM PICKIN' ON THE ROLLING STONES - PLAY WITH FIRE 
TTITLE6=PETER ROWAN - NO DEPRESSION IN HEAVEN
TTITLE7=IRON HORSE FROM THE B.G. TRIBUTE TO METALLICA - UNFORGIVEN
TTITLE8=DAVID PARMLEY and CONTINENTAL DIVIDE - MORE THAN I CAN BEAR 
TTITLE9=THE HEARTBREAK VALLEY BOYS - O DEATH
TTITLE10=DAVID WEST FROM PICKIN' ON NEIL YOUNG - MR. SOUL
TTITLE11=CACHE VALLEY DRIFTERS - CONVICTS 
TTITLE12=LARRY CORDEL and LONSOME STANDARD TIME - CALL ME THE BREEZE
TTITLE13=DENNIS CAPLINGER FROM PICKIN' ON R.E.M. -  FIND THE RIVER
TTITLE14=ROBIN and LINDA WILLIAMS - MURDERS ON THE CUMBERLAND PLATEAU
TTITLE15=DAVID WEST FROM PICKIN' ON LED ZEPPELIN VOL. 2 - BLACK MOUNTAIN SIDE 
TTITLE15=FROM
TTITLE16=THE EDDIE ADCOCK BAND - ANOTHER LONSOME MORNING
TTITLE17=THE BLACKSTONE VALLEY BLUEGRASS BAND - THIS TIME
TTITLE18=TIM O'BRIEN - BROTHER CAN YOU SPARE A DIME ?
TTITLE19=OLD SCHOOL FREIGHT TRAIN FROM PICKIN' ON AIR - KELLY WATCH THE STARS
EXTD=
EXTT0=
EXTT1=
EXTT2=
EXTT3=
EXTT4=
EXTT5=
EXTT6=
EXTT7=
EXTT8=
EXTT9=
EXTT10=
EXTT11=
EXTT12=
EXTT13=
EXTT14=
EXTT15=
EXTT16=
EXTT17=
EXTT18=
EXTT19=
PLAYORDER=
